# xmcd
#
# Track frame offsets:
#	150
#	7897
#	22921
#	39443
#	60058
#	79870
#	98485
#	109937
#	125303
#	142672
#	156904
#	173407
#	187210
#	200026
#	214856
#	228240
#	245601
#	267840
#	282766
#	298260
#	309028
#	325531
#
# Disc length: 4542 seconds
#
# Revision: 0
# Processed by: cddbd v1.5.1PL2 Copyright (c) Steve Scherf et al.
# Submitted via: EasyCDDAExtractor 8.1.2.3
#
DISCID=1b11bc16
DTITLE=Epsilon - Un rapide récapitulatif avant l'apocalypse
DYEAR=2006
DGENRE=Rap
TTITLE0=Intro
TTITLE1=Entre dans nos mondes
TTITLE2=Jours de défaite
TTITLE3=A traves les masques
TTITLE4=C'est vraiment pas évident ft Phonknegz
TTITLE5=Ghetto soldiers ft B.H. hit
TTITLE6=On tend les majeurs
TTITLE7=Make money
TTITLE8=Gangstaz
TTITLE9=J'essaye d'y croire
TTITLE10=Donne moi 3 min (solo elips)
TTITLE11=Ghetto S promo
TTITLE12=Au contact
TTITLE13=Course chrono
TTITLE14=Qu'est ce qu'on serais
TTITLE15=Rap classic
TTITLE16=Graine de violence
TTITLE17=Freestyle (solo donovan)
TTITLE18=Héritiés
TTITLE19=Ravages vrai
TTITLE20=Rappel a l'ordre
TTITLE21=Regarde moi
EXTD=
EXTT0=
EXTT1=
EXTT2=
EXTT3=
EXTT4=
EXTT5=
EXTT6=
EXTT7=
EXTT8=
EXTT9=
EXTT10=
EXTT11=
EXTT12=
EXTT13=
EXTT14=
EXTT15=
EXTT16=
EXTT17=
EXTT18=
EXTT19=
EXTT20=
EXTT21=
PLAYORDER=
